<svg width="33" height="33" viewBox="0 0 33 33" fill="none" xmlns="http://www.w3.org/2000/svg">
<circle cx="16.6201" cy="16.5742" r="15.4316" fill="#020202" stroke="#565656"/>
<path d="M21.3674 19.9404C21.3674 20.9355 21.0708 21.7924 20.4776 22.511C19.8844 23.2297 19.1138 23.6736 18.1658 23.8427V25.55C18.1658 25.641 18.139 25.7158 18.0854 25.7744C18.0317 25.8329 17.9631 25.8622 17.8797 25.8622H16.6724C16.5949 25.8622 16.5278 25.8313 16.4712 25.7695C16.4145 25.7077 16.3862 25.6345 16.3862 25.55V23.8427C15.9927 23.7842 15.6127 23.6834 15.246 23.5403C14.8794 23.3972 14.5768 23.2525 14.3383 23.1062C14.0998 22.9598 13.8792 22.8037 13.6765 22.6379C13.4738 22.472 13.3352 22.3501 13.2607 22.272C13.1862 22.194 13.134 22.1354 13.1042 22.0964C13.0029 21.9598 12.9969 21.8265 13.0863 21.6964L14.0074 20.3794C14.0492 20.3144 14.1177 20.2753 14.2131 20.2623C14.3025 20.2493 14.3741 20.2786 14.4277 20.3501L14.4456 20.3696C15.1193 21.0135 15.8437 21.42 16.6187 21.5891C16.8393 21.6412 17.0599 21.6672 17.2805 21.6672C17.7634 21.6672 18.1882 21.5273 18.5549 21.2477C18.9215 20.968 19.1048 20.5713 19.1048 20.0575C19.1048 19.8754 19.0601 19.703 18.9707 19.5404C18.8813 19.3778 18.7814 19.2412 18.6711 19.1307C18.5608 19.0201 18.3864 18.8981 18.148 18.7648C17.9095 18.6315 17.7127 18.5274 17.5577 18.4526C17.4027 18.3778 17.1642 18.2721 16.8423 18.1356C16.6098 18.0315 16.4265 17.9502 16.2923 17.8917C16.1582 17.8331 15.9748 17.747 15.7423 17.6331C15.5098 17.5193 15.3235 17.4185 15.1834 17.3307C15.0433 17.2429 14.8749 17.1275 14.6781 16.9844C14.4814 16.8413 14.3219 16.7031 14.1997 16.5698C14.0775 16.4364 13.9478 16.2771 13.8107 16.0917C13.6736 15.9064 13.5677 15.7178 13.4932 15.5259C13.4187 15.334 13.3561 15.1178 13.3054 14.8771C13.2547 14.6365 13.2294 14.3828 13.2294 14.1162C13.2294 13.2186 13.5215 12.4317 14.1058 11.7553C14.6901 11.0789 15.4502 10.6431 16.3862 10.448V8.69195C16.3862 8.6074 16.4145 8.53423 16.4712 8.47244C16.5278 8.41065 16.5949 8.37976 16.6724 8.37976H17.8797C17.9631 8.37976 18.0317 8.40903 18.0854 8.46756C18.139 8.5261 18.1658 8.60089 18.1658 8.69195V10.409C18.5057 10.448 18.8351 10.5228 19.154 10.6334C19.473 10.7439 19.7323 10.8529 19.932 10.9602C20.1318 11.0675 20.3211 11.1894 20.4999 11.326C20.6788 11.4626 20.795 11.5569 20.8487 11.6089C20.9023 11.661 20.9471 11.7065 20.9828 11.7455C21.0842 11.8626 21.0991 11.9862 21.0275 12.1162L20.3032 13.5406C20.2555 13.6381 20.1869 13.6902 20.0975 13.6967C20.014 13.7162 19.9335 13.6934 19.856 13.6284C19.8381 13.6089 19.7949 13.5699 19.7264 13.5113C19.6578 13.4528 19.5415 13.3666 19.3776 13.2528C19.2136 13.139 19.0393 13.0349 18.8544 12.9406C18.6696 12.8463 18.4475 12.7617 18.1882 12.6869C17.9289 12.6122 17.674 12.5748 17.4236 12.5748C16.8572 12.5748 16.3952 12.7146 16.0374 12.9943C15.6797 13.2739 15.5009 13.6349 15.5009 14.0772C15.5009 14.2463 15.5262 14.4023 15.5769 14.5454C15.6276 14.6885 15.7155 14.8235 15.8407 14.9503C15.9659 15.0771 16.0837 15.1844 16.1939 15.2722C16.3042 15.36 16.4712 15.4609 16.6947 15.5747C16.9183 15.6885 17.0987 15.7763 17.2358 15.8381C17.3729 15.8999 17.5816 15.9893 17.8618 16.1064C18.1778 16.2364 18.4192 16.3389 18.5862 16.4137C18.7531 16.4885 18.9796 16.6023 19.2658 16.7551C19.552 16.908 19.777 17.0462 19.941 17.1697C20.1049 17.2933 20.2898 17.4559 20.4954 17.6575C20.7011 17.8592 20.8591 18.0657 20.9694 18.277C21.0797 18.4884 21.1736 18.7372 21.2511 19.0233C21.3286 19.3095 21.3674 19.6152 21.3674 19.9404Z" fill="#565656"/>
</svg>
